<?xml version="1.0" encoding="UTF-8" standalone="no"?>
<svg
   xmlns:dc="http://purl.org/dc/elements/1.1/"
   xmlns:cc="http://creativecommons.org/ns#"
   xmlns:rdf="http://www.w3.org/1999/02/22-rdf-syntax-ns#"
   xmlns:svg="http://www.w3.org/2000/svg"
   xmlns="http://www.w3.org/2000/svg"
   viewBox="0 0 312.12534 406.61469"
   height="406.61469"
   width="312.12534"
   xml:space="preserve"
   id="svg2"
   version="1.1"><metadata
     id="metadata8"><rdf:RDF>
<rdf:Description rdf:about='' xmlns:dct='http://purl.org/dc/terms/'>
      <dct:source rdf:resource='https://github.com/dxc-technology/ThreatDeck'>
        <rdf:Alt>
          <rdf:li xml:lang='x-default'>Based on a work at &lt;a rel=&#34;dct:source&#34; href=&#34;https://github.com/dxc-technology/ThreatDeck&#34;&gt;&lt;/a&gt;.</rdf:li>
        </rdf:Alt>
      </dct:source>
    </rdf:Description>
  <cc:Work rdf:about="">
    <dc:format>image/svg+xml</dc:format>
    <dc:type rdf:resource="http://purl.org/dc/dcmitype/StillImage"/>
    <cc:license rdf:resource="http://creativecommons.org/licenses/by-sa/4.0/"/>
    <cc:attributionName>DXC Technology Company</cc:attributionName>
    <cc:attributionURL rdf:resource="https://dxc.technology"/>
  </cc:Work>
  <cc:License rdf:about="http://creativecommons.org/licenses/by-sa/4.0/">
  <requires rdf:resource="http://creativecommons.org/ns#Attribution" />
  <permits rdf:resource="http://creativecommons.org/ns#Reproduction" />
  <permits rdf:resource="http://creativecommons.org/ns#Distribution" />
  <permits rdf:resource="http://creativecommons.org/ns#DerivativeWorks" />
  <requires rdf:resource="http://creativecommons.org/ns#ShareAlike" />
  <requires rdf:resource="http://creativecommons.org/ns#Notice" />
  </cc:License>
</rdf:RDF></metadata><defs
     id="defs6"><clipPath
       id="clipPath20"
       clipPathUnits="userSpaceOnUse"><path
         id="path18"
         d="M 12.1654,292.795 H 221.929 V 12.1653 H 12.1654 Z" /></clipPath><clipPath
       id="clipPath46"
       clipPathUnits="userSpaceOnUse"><path
         id="path44"
         d="m 138.874,261.91 h 54.709 v 9.342 h -54.709 z" /></clipPath><clipPath
       id="clipPath58"
       clipPathUnits="userSpaceOnUse"><path
         id="path56"
         d="m 12.165,12.165 h 209.764 v 280.63 H 12.165 Z" /></clipPath><clipPath
       id="clipPath104"
       clipPathUnits="userSpaceOnUse"><path
         id="path102"
         d="M 12.1654,292.795 H 221.929 V 12.1653 H 12.1654 Z" /></clipPath><clipPath
       id="clipPath116"
       clipPathUnits="userSpaceOnUse"><path
         id="path114"
         d="M 0,0 H 234.094 V 304.961 H 0 Z" /></clipPath></defs><g
     transform="matrix(1.3333333,0,0,-1.3333333,0,406.61467)"
     id="g10"><g
   id="g12"><g
     id="g14"><g
       clip-path="url(#clipPath20)"
       id="g16"><path
   id="path22"
   style="fill:#f7cf2b;fill-opacity:1;fill-rule:nonzero;stroke:none"
   d="m 12.165,12.165 h 209.764 v 280.63 H 12.165 Z" /><g
   transform="translate(40.5118,242.788)"
   id="g24"><path
     id="path26"
     style="fill:none;stroke:#231f20;stroke-width:0.5;stroke-linecap:butt;stroke-linejoin:miter;stroke-miterlimit:4;stroke-dasharray:none;stroke-opacity:1"
     d="M 0,0 H 153.071" /></g><g
   transform="translate(40.5118,195.3148)"
   id="g28"><path
     id="path30"
     style="fill:none;stroke:#231f20;stroke-width:0.5;stroke-linecap:butt;stroke-linejoin:miter;stroke-miterlimit:4;stroke-dasharray:none;stroke-opacity:1"
     d="M 0,0 H 153.071" /></g><g
   transform="translate(40.5118,144.0621)"
   id="g32"><path
     id="path34"
     style="fill:none;stroke:#231f20;stroke-width:0.5;stroke-linecap:butt;stroke-linejoin:miter;stroke-miterlimit:4;stroke-dasharray:none;stroke-opacity:1"
     d="M 0,0 H 153.071" /></g><text
   id="text38"
   style="font-variant:normal;font-weight:bold;font-stretch:normal;font-size:28px;font-family:'Arial';-inkscape-font-specification:Arial;writing-mode:lr-tb;fill:#000000;fill-opacity:1;fill-rule:nonzero;stroke:none"
   transform="matrix(1,0,0,-1,40.5118,218.6861)"><tspan
     id="tspan36"
     y="0"
     x="0">Chance</tspan></text>

<g
   id="g40"><g
     clip-path="url(#clipPath46)"
     id="g42"><g
       transform="translate(155.7813,264.8578)"
       id="g48"><path
         id="path50"
         style="fill:#000000;fill-opacity:1;fill-rule:nonzero;stroke:none"
         d="m 0,0 h 1.266 c 1.151,0 1.793,0.844 1.793,1.726 0,0.883 -0.647,1.727 -1.793,1.727 L 0,3.453 Z M 1.228,2.753 C 1.865,2.753 2.23,2.254 2.23,1.726 2.23,1.204 1.865,0.7 1.228,0.7 H 0.81 V 2.753 Z M 5.347,0 H 6.296 L 5.179,1.736 6.287,3.453 H 5.356 L 4.671,2.316 3.975,3.453 H 3.031 L 4.143,1.736 3.021,0 h 0.926 l 0.705,1.151 z m 2.69,-0.062 c 0.993,0 1.535,0.594 1.64,1.352 H 8.857 C 8.78,0.93 8.483,0.662 8.056,0.662 c -0.618,0 -0.94,0.494 -0.94,1.064 0,0.571 0.322,1.065 0.94,1.065 0.427,0 0.724,-0.269 0.801,-0.628 h 0.82 C 9.572,2.92 9.03,3.515 8.037,3.515 c -1.108,0 -1.75,-0.844 -1.75,-1.789 0,-0.944 0.642,-1.788 1.75,-1.788 m 1.914,0.518 c 0,-0.274 0.22,-0.499 0.498,-0.499 0.283,0 0.499,0.225 0.499,0.499 0,0.273 -0.216,0.498 -0.499,0.498 -0.278,0 -0.498,-0.225 -0.498,-0.498 M 11.01,2.479 V 1.865 h 0.388 V 0.858 c 0,-0.681 0.326,-0.896 0.916,-0.896 0.216,0 0.379,0.019 0.489,0.038 V 0.628 C 12.707,0.614 12.564,0.599 12.492,0.599 12.29,0.599 12.18,0.666 12.18,0.916 v 0.949 h 0.566 V 2.479 H 12.18 V 3.213 H 11.398 V 2.479 Z m 4.541,-1.726 h -0.743 c -0.082,-0.149 -0.226,-0.254 -0.47,-0.254 -0.355,0 -0.532,0.225 -0.547,0.537 h 1.803 c 0.015,0.115 0.019,0.201 0.019,0.292 0,0.657 -0.455,1.218 -1.275,1.218 -0.844,0 -1.305,-0.59 -1.305,-1.309 0,-0.714 0.466,-1.304 1.314,-1.304 0.677,0 1.079,0.36 1.204,0.82 M 14.328,1.99 c 0.298,0 0.489,-0.187 0.518,-0.48 h -1.05 c 0.029,0.303 0.24,0.48 0.532,0.48 M 18.481,1.525 C 18.385,2.1 17.958,2.546 17.21,2.546 c -0.839,0 -1.347,-0.599 -1.347,-1.309 0,-0.705 0.508,-1.304 1.347,-1.304 0.748,0 1.175,0.446 1.271,1.021 H 17.695 C 17.627,0.738 17.46,0.595 17.215,0.595 c -0.345,0 -0.566,0.292 -0.566,0.642 0,0.35 0.221,0.648 0.566,0.648 0.245,0 0.408,-0.144 0.475,-0.36 z M 18.831,0 h 0.782 v 1.295 c 0,0.35 0.163,0.575 0.479,0.575 0.336,0 0.442,-0.206 0.442,-0.503 V 0 h 0.781 v 1.424 c 0,0.7 -0.307,1.118 -0.935,1.118 -0.364,0 -0.628,-0.163 -0.767,-0.422 v 1.476 h -0.782 z m 2.978,0 h 0.782 v 1.295 c 0,0.35 0.163,0.575 0.479,0.575 0.336,0 0.441,-0.206 0.441,-0.503 V 0 h 0.782 v 1.424 c 0,0.7 -0.307,1.118 -0.935,1.118 -0.369,0 -0.638,-0.163 -0.777,-0.422 v 0.359 h -0.772 z m 4.22,-0.067 c 0.863,0 1.376,0.599 1.376,1.304 0,0.71 -0.513,1.309 -1.376,1.309 -0.854,0 -1.372,-0.599 -1.372,-1.309 0,-0.705 0.518,-1.304 1.372,-1.304 m 0,0.676 c -0.355,0 -0.585,0.283 -0.585,0.628 0,0.345 0.23,0.633 0.585,0.633 0.355,0 0.59,-0.288 0.59,-0.633 0,-0.345 -0.235,-0.628 -0.59,-0.628 M 27.784,0 h 0.782 v 3.596 h -0.782 z m 2.532,-0.067 c 0.863,0 1.376,0.599 1.376,1.304 0,0.71 -0.513,1.309 -1.376,1.309 -0.853,0 -1.371,-0.599 -1.371,-1.309 0,-0.705 0.518,-1.304 1.371,-1.304 m 0,0.676 c -0.355,0 -0.585,0.283 -0.585,0.628 0,0.345 0.23,0.633 0.585,0.633 0.355,0 0.59,-0.288 0.59,-0.633 0,-0.345 -0.235,-0.628 -0.59,-0.628 m 4.383,-0.657 V 2.479 H 33.927 V 2.115 c -0.144,0.264 -0.465,0.427 -0.782,0.427 -0.724,0 -1.203,-0.562 -1.203,-1.305 0,-0.738 0.498,-1.261 1.213,-1.261 0.321,0 0.628,0.158 0.762,0.384 v -0.427 c 0,-0.355 -0.187,-0.552 -0.561,-0.552 -0.331,0 -0.513,0.154 -0.547,0.379 h -0.776 c 0.043,-0.551 0.479,-0.944 1.304,-0.944 0.916,0 1.362,0.412 1.362,1.136 m -1.386,0.657 c -0.345,0 -0.585,0.288 -0.585,0.628 0,0.341 0.24,0.633 0.585,0.633 0.36,0 0.6,-0.292 0.6,-0.633 0,-0.34 -0.24,-0.628 -0.6,-0.628 m 3.357,-0.974 c -0.207,-0.522 -0.465,-0.772 -1.055,-0.772 -0.139,0 -0.25,0.01 -0.341,0.024 v 0.657 c 0.082,-0.014 0.197,-0.028 0.259,-0.028 0.197,0 0.322,0.076 0.422,0.321 l 0.062,0.153 -1.064,2.489 h 0.853 l 0.619,-1.53 0.571,1.525 h 0.805 L 36.67,-0.365 M -7.871,1.723 c 0,-1.684 1.345,-3.018 3.017,-3.018 h 1.313 v 6.043 h -1.313 c -1.672,0 -3.017,-1.334 -3.017,-3.025 m -2.347,0.981 2.125,3.69 h -4.262 z m 0,-1.962 -2.137,-3.69 h 4.262 z m -2.359,0.981 c 0,1.691 -1.345,3.025 -3.017,3.025 h -1.313 v -6.043 h 1.313 c 1.672,0 3.017,1.334 3.017,3.018" /></g></g></g></g></g></g><g
   id="g52"><g
     clip-path="url(#clipPath58)"
     id="g54"><g
       transform="translate(31.7087,69.0022)"
       id="g60"><path
         id="path62"
         style="fill:#000000;fill-opacity:1;fill-rule:nonzero;stroke:none"
         d="m 0,0 c 0,-15.9 12.936,-28.49 29.015,-28.49 l 170.544,0.348 V 28.557 H 29.015 C 12.936,28.557 0,15.964 0,0" /></g></g></g><text
   id="text66"
   style="font-variant:normal;font-weight:bold;font-stretch:normal;font-size:16px;font-family:'Arial';-inkscape-font-specification:Arial;writing-mode:lr-tb;fill:#000000;fill-opacity:1;fill-rule:nonzero;stroke:none"
   transform="matrix(1,0,0,-1,40.5118,179.6129)"><tspan
     id="tspan64"
     y="0"
     x="0">Surprise </tspan></text>

<text
   id="text70"
   style="font-variant:normal;font-weight:bold;font-stretch:normal;font-size:16px;font-family:'Arial';-inkscape-font-specification:Arial;writing-mode:lr-tb;fill:#000000;fill-opacity:1;fill-rule:nonzero;stroke:none"
   transform="matrix(1,0,0,-1,40.5118,162.6129)"><tspan
     id="tspan68"
     y="0"
     x="0">Security Audit</tspan></text>

<text
   id="text74"
   style="font-variant:normal;font-weight:normal;font-stretch:normal;font-size:8px;font-family:'Arial';-inkscape-font-specification:Arial;writing-mode:lr-tb;fill:#231f20;fill-opacity:1;fill-rule:nonzero;stroke:none"
   transform="matrix(1,0,0,-1,40.5118,133.9602)"><tspan
     id="tspan72"
     y="0"
     x="0">An unannounced regulatory audit </tspan></text>

<text
   id="text78"
   style="font-variant:normal;font-weight:normal;font-stretch:normal;font-size:8px;font-family:'Arial';-inkscape-font-specification:Arial;writing-mode:lr-tb;fill:#231f20;fill-opacity:1;fill-rule:nonzero;stroke:none"
   transform="matrix(1,0,0,-1,40.5118,123.9602)"><tspan
     id="tspan76"
     y="0"
     x="0">has commenced at your organisation.</tspan></text>

<text
   id="text82"
   style="font-variant:normal;font-weight:bold;font-stretch:normal;font-size:9px;font-family:'Arial';-inkscape-font-specification:Arial;writing-mode:lr-tb;fill:#ffffff;fill-opacity:1;fill-rule:nonzero;stroke:none"
   transform="matrix(1,0,0,-1,48.4488,82.3855)"><tspan
     id="tspan80"
     y="0"
     x="0">Swap out any played Defence </tspan></text>

<text
   id="text86"
   style="font-variant:normal;font-weight:bold;font-stretch:normal;font-size:9px;font-family:'Arial';-inkscape-font-specification:Arial;writing-mode:lr-tb;fill:#ffffff;fill-opacity:1;fill-rule:nonzero;stroke:none"
   transform="matrix(1,0,0,-1,48.4488,71.3855)"><tspan
     id="tspan84"
     y="0"
     x="0">cards to meet compliance </tspan></text>

<text
   id="text90"
   style="font-variant:normal;font-weight:bold;font-stretch:normal;font-size:9px;font-family:'Arial';-inkscape-font-specification:Arial;writing-mode:lr-tb;fill:#ffffff;fill-opacity:1;fill-rule:nonzero;stroke:none"
   transform="matrix(1,0,0,-1,48.4488,60.3855)"><tspan
     id="tspan88"
     y="0"
     x="0">requirements:</tspan></text>

<text
   id="text94"
   style="font-variant:normal;font-weight:bold;font-stretch:normal;font-size:9px;font-family:'Arial';-inkscape-font-specification:Arial;writing-mode:lr-tb;fill:#ffffff;fill-opacity:1;fill-rule:nonzero;stroke:none"
   transform="matrix(1,0,0,-1,48.4488,49.3855)"><tspan
     id="tspan92"
     y="0"
     x="0">AntiVirus / Firewall / SIEM</tspan></text>

</g></svg>